<?xml version="1.0" standalone="no"?>
<!DOCTYPE svg PUBLIC "-//W3C//DTD SVG 20010904//EN"
 "http://www.w3.org/TR/2001/REC-SVG-20010904/DTD/svg10.dtd">
<svg version="1.0" xmlns="http://www.w3.org/2000/svg"
 width="816.000000pt" height="816.000000pt" viewBox="0 0 816.000000 816.000000"
 preserveAspectRatio="xMidYMid meet">
<metadata>
Created by potrace 1.14, written by Peter Selinger 2001-2017
</metadata>
<g transform="translate(0.000000,816.000000) scale(0.100000,-0.100000)"
fill="#000000" stroke="none">
<path d="M900 7558 c-14 -5 -20 -14 -16 -23 3 -8 2 -15 -2 -15 -6 0 -7 -24 -3
-145 1 -16 0 -90 -1 -162 -2 -73 1 -133 5 -133 4 0 4 -8 -1 -17 -8 -18 -7
-166 2 -190 3 -7 2 -14 -2 -17 -6 -3 -7 -41 -3 -127 1 -24 81 -45 167 -45 44
1 74 -3 74 -9 0 -6 3 -6 8 1 9 13 144 12 154 -1 5 -7 8 -6 8 0 0 14 150 14
150 0 0 -6 3 -6 8 0 10 14 374 14 385 0 5 -7 9 -7 15 0 9 14 215 14 224 0 5
-7 8 -7 8 0 0 12 139 13 158 1 7 -4 12 -3 12 1 0 5 34 9 75 8 43 0 75 -4 75
-10 0 -6 3 -6 8 0 9 14 215 14 225 0 5 -7 9 -7 15 0 10 14 222 14 222 0 0 -7
3 -7 8 0 4 6 21 11 37 11 17 0 33 -5 38 -11 5 -7 9 -7 15 0 10 14 222 14 222
0 0 -7 3 -7 8 0 4 6 21 11 37 11 17 0 33 -5 38 -11 5 -7 9 -7 15 0 10 14 222
14 222 0 0 -7 3 -7 8 0 4 6 21 11 37 11 17 0 33 -5 38 -11 5 -7 9 -7 15 0 10
14 222 14 222 0 0 -7 3 -7 8 0 10 13 225 14 235 0 5 -7 9 -7 15 0 9 14 215 14
224 0 5 -7 8 -7 8 0 0 12 139 13 158 1 7 -4 12 -3 12 1 0 5 34 9 75 8 43 0 75
-4 75 -10 0 -6 3 -6 8 0 10 14 374 14 385 0 5 -7 9 -7 15 0 9 14 215 14 224 0
5 -7 8 -7 8 0 0 12 139 13 158 1 7 -4 12 -3 12 2 0 12 143 9 152 -3 5 -7 8 -7
8 0 0 6 30 11 69 11 57 1 77 6 117 29 27 16 57 38 67 49 35 40 58 106 62 174
2 37 4 67 5 67 1 0 3 20 5 45 2 25 7 56 10 70 5 22 10 70 19 188 2 18 -1 35
-6 38 -4 3 -6 9 -3 14 6 10 -27 100 -37 100 -4 0 -8 5 -8 10 0 14 -51 59 -66
60 -6 0 -17 7 -24 15 -7 8 -16 12 -21 9 -5 -3 -15 -2 -21 3 -17 11 -4849 12
-4878 1z"/>
<path d="M7380 7529 c-19 -12 -41 -30 -48 -40 -7 -10 -19 -24 -26 -31 -13 -14
-21 -32 -33 -80 -10 -39 -4 -197 8 -219 9 -17 8 -20 -2 -14 -8 5 -10 4 -5 -3
12 -20 19 -68 31 -225 2 -32 9 -64 14 -71 6 -7 9 -15 6 -18 -3 -3 1 -11 10
-18 8 -7 15 -17 15 -22 0 -6 15 -23 33 -39 l32 -28 3 210 c1 116 1 302 0 415
l-3 204 -35 -21z"/>
<path d="M1024 6380 c-3 -2 -16 -5 -30 -6 -42 -2 -114 -45 -115 -68 0 -12 0
-138 1 -281 0 -143 1 -267 0 -275 0 -8 -1 -72 -2 -142 -2 -71 1 -128 5 -128 5
0 5 -5 1 -12 -4 -6 -6 -122 -5 -257 1 -135 2 -253 1 -261 -5 -151 -1 -169 50
-184 54 -16 210 -17 266 0 30 8 54 20 54 25 0 5 5 9 11 9 14 0 59 47 59 61 0
5 4 9 8 9 5 0 17 28 27 63 10 34 22 67 27 73 4 6 5 13 2 17 -3 3 0 16 7 29 7
12 14 28 14 33 1 6 4 17 7 25 4 8 16 44 29 80 35 104 105 241 146 287 43 48
99 79 158 89 31 5 670 9 770 5 20 -1 20 -6 19 -1953 0 -1074 -4 -1973 -8
-1998 -5 -25 -9 -50 -10 -57 -1 -7 -5 -15 -8 -19 -4 -3 -4 -12 -1 -20 3 -8 0
-14 -6 -14 -6 0 -11 -7 -11 -16 0 -9 -10 -33 -21 -54 -28 -50 -88 -76 -198
-85 -20 -2 -36 -4 -36 -5 0 0 -34 -2 -75 -4 -85 -3 -131 -20 -182 -65 -33 -29
-67 -85 -72 -117 -1 -7 -4 -16 -7 -18 -2 -3 -4 -48 -2 -100 2 -102 19 -157 65
-207 31 -33 87 -67 120 -71 15 -2 30 -7 33 -10 3 -3 20 -2 38 1 18 4 44 4 59
0 15 -4 43 -3 63 1 19 4 35 5 35 1 0 -3 14 -6 30 -7 17 -1 30 2 30 6 0 6 35 6
50 0 15 -6 47 -4 64 3 13 7 16 6 11 -3 -6 -9 -3 -9 12 -1 11 6 23 8 26 4 9 -8
77 -11 77 -3 0 6 35 6 50 0 15 -6 47 -4 64 3 13 7 16 6 11 -3 -6 -9 -3 -9 12
-1 11 6 23 8 26 4 9 -8 77 -11 77 -3 0 8 31 7 45 -2 6 -3 19 -4 30 -2 35 7 93
7 104 0 6 -4 11 -2 11 5 0 8 4 8 13 2 6 -6 21 -9 32 -7 32 7 92 7 102 1 5 -3
26 -2 46 3 20 4 37 5 37 1 0 -3 14 -6 30 -7 17 -1 30 2 30 6 0 6 35 6 50 0 15
-6 47 -4 64 3 13 7 16 6 11 -3 -6 -9 -3 -9 12 -1 11 6 23 8 26 4 9 -8 77 -11
77 -3 0 6 35 6 50 0 15 -6 47 -4 64 3 13 7 16 6 11 -3 -6 -9 -3 -9 12 -1 11 6
23 8 26 4 9 -8 77 -11 77 -3 0 8 31 7 45 -2 6 -3 19 -4 30 -2 35 7 93 7 104 0
6 -4 11 -2 11 5 0 8 4 8 13 2 6 -6 21 -9 32 -7 32 7 92 7 102 1 5 -3 26 -2 46
3 20 4 37 5 37 1 0 -3 14 -6 30 -7 17 -1 30 2 30 6 0 6 35 6 50 0 15 -6 47 -4
64 3 13 7 16 6 11 -3 -6 -9 -3 -9 12 -1 11 6 23 8 26 4 9 -8 77 -11 77 -4 0 4
19 6 41 4 74 -4 160 50 199 125 26 51 42 112 28 112 -5 0 -6 5 -2 12 9 13 12
88 4 88 -3 0 -5 15 -4 32 1 45 -24 96 -67 138 -69 66 -81 71 -204 76 -44 2
-93 6 -110 9 -16 4 -39 8 -50 9 -42 7 -91 35 -127 71 -21 21 -35 42 -32 46 3
5 0 9 -5 9 -6 0 -10 3 -10 8 1 4 0 9 -1 12 -1 3 -3 14 -5 25 -2 11 -6 40 -10
65 -5 25 -8 928 -9 2008 l-1 1962 30 1 c101 3 508 0 547 -4 62 -6 156 -36 190
-59 14 -10 30 -18 36 -18 5 0 23 -13 40 -30 18 -16 37 -30 44 -30 6 0 9 -2 6
-5 -3 -3 12 -24 33 -46 22 -23 39 -48 39 -55 0 -8 4 -14 8 -14 5 0 19 -24 31
-52 12 -29 27 -62 32 -73 12 -27 40 -149 47 -205 11 -95 5 -312 -13 -405 -11
-61 -28 -130 -34 -140 -3 -5 -6 -14 -7 -20 -7 -34 -51 -111 -83 -145 -21 -22
-35 -40 -32 -40 7 0 -30 -21 -114 -63 -33 -17 -66 -30 -72 -28 -7 1 -13 -3
-13 -10 0 -6 -7 -9 -15 -5 -8 3 -15 2 -15 -2 0 -7 -78 -34 -97 -34 -4 0 -15
-4 -24 -9 -9 -4 -31 -11 -50 -15 -47 -8 -64 -12 -64 -14 0 -1 -13 -3 -30 -5
-16 -1 -30 -3 -30 -4 0 -1 -36 -5 -80 -8 -44 -2 -82 -7 -84 -9 -3 -2 -5 -176
-5 -386 l0 -381 100 -3 c97 -3 214 -11 224 -15 3 -1 10 -3 15 -4 6 0 30 -4 55
-8 25 -4 50 -8 55 -9 19 -2 180 -47 210 -58 17 -6 32 -12 35 -12 14 -2 130
-67 165 -93 78 -58 162 -156 204 -237 23 -44 41 -88 41 -98 0 -10 4 -21 8 -24
4 -2 9 -19 10 -37 1 -17 6 -37 9 -43 12 -19 17 -88 17 -251 1 -167 -6 -253
-24 -320 -6 -22 -13 -51 -16 -64 -6 -30 -56 -135 -66 -139 -5 -2 -8 -9 -8 -15
-1 -33 -126 -159 -188 -188 -26 -12 -49 -25 -52 -28 -3 -3 -9 -7 -15 -8 -5 -1
-43 -14 -84 -28 -41 -14 -80 -24 -87 -21 -7 3 -15 2 -19 -2 -3 -3 -16 -7 -28
-8 -82 -5 -182 -16 -185 -19 -2 -2 13 -13 35 -23 33 -18 105 -81 139 -124 23
-29 72 -145 80 -188 10 -64 11 -207 1 -260 -4 -25 -9 -53 -10 -62 -1 -10 -5
-18 -9 -18 -4 0 -8 -6 -8 -12 0 -7 -7 -26 -15 -42 -9 -16 -13 -31 -10 -34 8
-9 508 -8 527 0 9 5 20 4 23 -2 4 -6 11 -8 16 -4 5 3 47 7 92 10 91 4 199 13
237 19 14 2 45 7 69 10 23 3 54 10 67 15 13 5 24 7 24 5 0 -3 15 1 33 8 17 8
49 17 70 21 20 4 37 11 37 17 0 6 3 8 8 5 4 -2 23 3 42 11 19 9 40 17 45 19
26 6 84 35 89 43 4 5 20 12 36 16 17 4 30 11 30 16 0 6 4 8 9 5 5 -4 11 -3 13
1 3 8 105 73 114 73 3 0 10 5 17 10 44 37 61 50 66 50 3 0 21 14 40 30 18 17
38 30 43 30 5 0 6 5 3 10 -3 6 -1 10 4 10 6 0 19 8 29 17 9 10 30 28 46 41 16
12 26 22 23 22 -3 0 17 22 44 49 27 27 49 54 49 60 0 6 4 11 8 11 7 0 80 91
92 115 3 5 17 29 33 52 15 24 27 45 27 49 0 3 8 18 18 32 10 15 25 43 32 62 7
19 18 41 24 49 6 7 11 19 11 25 1 6 13 50 29 99 15 48 28 96 29 107 1 11 4 20
7 20 3 0 6 17 8 37 1 20 5 48 7 62 12 59 18 153 17 271 -1 104 -7 215 -12 215
-3 0 -9 42 -12 80 -2 22 -6 42 -10 45 -3 3 -9 21 -11 40 -3 19 -6 35 -7 35 -2
0 -11 37 -12 53 -1 6 -5 12 -10 12 -5 0 -7 4 -4 8 4 7 -11 49 -35 94 -5 10 -9
22 -9 27 0 25 -156 271 -172 271 -4 0 -8 6 -8 13 0 7 -9 19 -20 27 -11 8 -20
17 -20 21 0 11 -130 139 -141 139 -6 0 -7 4 -4 10 3 5 2 10 -3 10 -5 0 -20 9
-33 21 -13 12 -51 40 -84 62 -33 22 -62 44 -63 49 -2 4 -7 6 -12 3 -4 -3 -13
2 -20 10 -7 8 -17 15 -22 15 -5 0 -20 8 -35 17 -14 10 -32 18 -40 19 -8 2 -24
11 -35 21 -11 10 -23 17 -27 16 -3 0 -25 7 -48 18 -24 11 -54 24 -68 29 -27
10 -34 30 -10 30 8 0 15 5 15 11 0 5 4 8 8 5 5 -3 25 8 44 24 19 16 38 26 42
23 3 -3 6 -1 6 5 0 6 21 25 46 42 61 43 284 266 284 286 0 2 5 10 10 17 23 28
59 87 52 87 -4 0 -2 4 4 8 13 8 73 134 79 166 2 11 4 23 5 26 2 3 2 8 1 13 0
4 4 7 10 7 5 0 7 5 4 10 -4 6 -1 17 5 25 7 8 10 15 6 15 -3 0 -2 10 3 23 8 22
17 73 28 167 7 60 6 263 -1 325 -14 116 -62 290 -88 323 -6 6 -7 12 -4 12 15
0 -106 204 -134 227 -8 7 -11 13 -6 13 5 0 0 8 -10 18 -11 9 -32 35 -48 56
-54 72 -246 256 -267 256 -5 0 -9 5 -9 10 0 6 -6 10 -13 10 -8 0 -22 9 -32 20
-10 11 -24 20 -31 20 -7 0 -14 4 -16 8 -3 9 -232 142 -243 142 -3 0 -34 13
-68 29 -34 15 -80 34 -102 40 -22 7 -47 15 -55 18 -8 3 -19 7 -25 8 -5 1 -12
3 -15 5 -3 1 -14 4 -25 6 -11 1 -31 6 -45 9 -52 14 -100 22 -100 17 0 -2 -6 0
-13 6 -7 6 -37 13 -67 16 -30 3 -65 8 -77 10 -12 3 -53 8 -90 11 -37 4 -81 9
-98 11 -16 2 -129 6 -250 8 -121 3 -222 6 -225 7 -3 1 -9 0 -15 -1 -32 -8 -55
-7 -55 2 0 6 -6 5 -15 -2 -11 -9 -18 -10 -28 -1 -8 6 -17 8 -20 5 -11 -11 -57
-13 -57 -3 0 6 -6 7 -13 2 -16 -10 -107 -11 -107 0 0 4 -6 5 -12 0 -17 -10
-148 -10 -148 0 0 5 -6 5 -12 0 -18 -10 -148 -10 -148 1 0 5 -7 3 -15 -4 -8
-6 -19 -9 -25 -5 -11 7 -83 8 -320 5 -69 0 -129 0 -135 0 -32 5 -215 1 -224
-4 -5 -4 -12 -3 -14 1 -3 5 -94 6 -202 3 -108 -3 -199 -3 -201 -1 -6 7 -212 4
-223 -3 -5 -4 -12 -3 -14 1 -3 5 -58 6 -122 3 -64 -3 -119 -3 -121 -1 -6 7
-212 4 -223 -3 -5 -4 -12 -3 -14 1 -3 5 -58 6 -122 3 -64 -3 -119 -3 -121 -1
-6 7 -212 4 -223 -3 -5 -4 -12 -3 -14 1 -3 5 -58 6 -122 3 -64 -3 -119 -3
-121 -1 -6 7 -212 4 -223 -3 -5 -4 -12 -2 -15 3 -3 5 -21 6 -40 1 -19 -4 -37
-5 -40 -2 -7 6 -206 9 -212 2z"/>
<path d="M7397 6297 c-18 -18 -46 -73 -54 -107 -5 -19 -11 -234 -17 -582 -2
-147 -7 -271 -10 -277 -4 -5 -2 -12 4 -16 6 -4 7 -11 4 -17 -4 -6 -8 -88 -9
-182 -2 -192 4 -221 64 -283 l36 -38 3 383 c1 210 1 552 0 760 -3 366 -4 376
-21 359z"/>
</g>
</svg>
