<svg width="105" height="68" viewBox="0 0 105 68" fill="none" xmlns="http://www.w3.org/2000/svg">
<path d="M28.7026 0C37.7437 0 44.7723 3.12725 49.7883 9.38175C54.8043 15.5743 57.3123 23.6556 57.3123 33.6257C57.3123 43.6576 54.8043 51.8009 49.7883 58.0554C44.7723 64.2479 37.7437 67.3442 28.7026 67.3442C19.5995 67.3442 12.54 64.2479 7.52398 58.0554C2.50799 51.8009 0 43.6576 0 33.6257C0 23.6556 2.50799 15.5743 7.52398 9.38175C12.54 3.12725 19.5995 0 28.7026 0ZM28.7026 7.80264C22.3861 7.80264 17.525 10.1558 14.1191 14.8622C10.7751 19.5066 9.10308 25.7611 9.10308 33.6257C9.10308 39.1371 9.93908 43.9053 11.6111 47.9305L41.3354 12.6328C37.9914 9.41271 33.7805 7.80264 28.7026 7.80264ZM28.7026 59.5416C35.019 59.5416 39.8492 57.2194 43.1932 52.5749C46.5372 47.8686 48.2092 41.5522 48.2092 33.6257C48.2092 27.9904 47.3732 23.1912 45.7012 19.2279L15.9768 54.7114C19.3208 57.9315 23.5627 59.5416 28.7026 59.5416Z" fill="#175F55" fill-opacity="0.18"/>
<path d="M69.481 29.4457C75.4259 27.0306 79.6987 23.4389 82.2996 18.6706C84.9005 13.9023 86.2629 7.98842 86.3867 0.928885H104.5V66.4153H95.4898V9.28886L96.976 3.43688H94.5609C94.2513 7.5859 93.7249 11.2395 92.9818 14.3977C92.3006 17.5559 91.155 20.7142 89.5449 23.8724C87.9968 26.9687 85.7675 29.6624 82.857 31.9537C80.0084 34.2449 76.5405 36.0408 72.4534 37.3412L69.481 29.4457Z" fill="#175F55" fill-opacity="0.18"/>
</svg>
