<svg width="120" height="68" viewBox="0 0 120 68" fill="none" xmlns="http://www.w3.org/2000/svg">
<path d="M28.7026 0C37.7437 0 44.7723 3.12725 49.7883 9.38175C54.8043 15.5743 57.3123 23.6556 57.3123 33.6257C57.3123 43.6576 54.8043 51.8009 49.7883 58.0554C44.7723 64.2479 37.7437 67.3442 28.7026 67.3442C19.5995 67.3442 12.54 64.2479 7.52398 58.0554C2.50799 51.8009 0 43.6576 0 33.6257C0 23.6556 2.50799 15.5743 7.52398 9.38175C12.54 3.12725 19.5995 0 28.7026 0ZM28.7026 7.80264C22.3861 7.80264 17.525 10.1558 14.1191 14.8622C10.7751 19.5066 9.10308 25.7611 9.10308 33.6257C9.10308 39.1371 9.93908 43.9053 11.6111 47.9305L41.3354 12.6328C37.9914 9.41271 33.7805 7.80264 28.7026 7.80264ZM28.7026 59.5416C35.019 59.5416 39.8492 57.2194 43.1932 52.5749C46.5372 47.8686 48.2092 41.5522 48.2092 33.6257C48.2092 27.9904 47.3732 23.1912 45.7012 19.2279L15.9768 54.7114C19.3208 57.9315 23.5627 59.5416 28.7026 59.5416Z" fill="#175F55" fill-opacity="0.18"/>
<path d="M66.7506 32.1395C66.7506 21.1167 69.3515 13.0044 74.5532 7.80264C79.8169 2.60088 86.7526 0 95.3603 0C102.668 0 108.489 1.9197 112.823 5.75909C117.158 9.59849 119.326 15.017 119.326 22.0146C119.326 27.2164 118.087 31.8608 115.61 35.9479C113.133 39.9731 109.603 43.4099 105.021 46.2585C100.438 49.0452 95.2984 51.3674 89.6012 53.2252C83.904 55.021 77.4018 56.5072 70.0946 57.6838V60.1918L76.3181 58.6127H119.326V66.4153H67.6795V50.5314C69.4753 50.2837 71.3331 49.9741 73.2528 49.6025C75.1725 49.169 77.9592 48.5188 81.6128 47.6518C85.2664 46.723 88.6104 45.5464 91.6447 44.1221C94.6791 42.6359 97.6825 40.9019 100.655 38.9203C103.627 36.9387 105.981 34.4617 107.714 31.4892C109.448 28.5168 110.315 25.2967 110.315 21.8288C110.315 17.3082 109.046 13.8404 106.507 11.4253C104.03 9.01019 100.376 7.80264 95.5461 7.80264C89.2296 7.80264 84.3375 9.69137 80.8697 13.4688C77.4638 17.2463 75.7608 23.4699 75.7608 32.1395H66.7506Z" fill="#175F55" fill-opacity="0.18"/>
</svg>
