<svg width="120" height="68" viewBox="0 0 120 68" fill="none" xmlns="http://www.w3.org/2000/svg">
<path d="M28.7026 0C37.7437 0 44.7723 3.12725 49.7883 9.38175C54.8043 15.5743 57.3123 23.6556 57.3123 33.6257C57.3123 43.6576 54.8043 51.8009 49.7883 58.0554C44.7723 64.2479 37.7437 67.3442 28.7026 67.3442C19.5995 67.3442 12.54 64.2479 7.52398 58.0554C2.50799 51.8009 0 43.6576 0 33.6257C0 23.6556 2.50799 15.5743 7.52398 9.38175C12.54 3.12725 19.5995 0 28.7026 0ZM28.7026 7.80264C22.3861 7.80264 17.525 10.1558 14.1191 14.8622C10.7751 19.5066 9.10308 25.7611 9.10308 33.6257C9.10308 39.1371 9.93908 43.9053 11.6111 47.9305L41.3354 12.6328C37.9914 9.41271 33.7805 7.80264 28.7026 7.80264ZM28.7026 59.5416C35.019 59.5416 39.8492 57.2194 43.1932 52.5749C46.5372 47.8686 48.2092 41.5522 48.2092 33.6257C48.2092 27.9904 47.3732 23.1912 45.7012 19.2279L15.9768 54.7114C19.3208 57.9315 23.5627 59.5416 28.7026 59.5416Z" fill="#175F55" fill-opacity="0.18"/>
<path d="M67.0293 41.4283H76.0395C76.0395 47.9924 77.4947 52.6678 80.4052 55.4545C83.3777 58.1792 88.1459 59.5416 94.7101 59.5416C105.485 59.5416 110.873 55.3926 110.873 47.0945C110.873 39.6634 106.909 35.9479 98.9829 35.9479H89.8799V28.1452H98.9829C106.29 28.1452 109.944 24.987 109.944 18.6706C109.944 11.4253 104.866 7.80264 94.7101 7.80264C88.3936 7.80264 83.8421 8.97923 81.0555 11.3324C78.3307 13.6856 76.9684 17.4011 76.9684 22.479H67.9582C67.9582 15.0479 70.2804 9.44367 74.9248 5.6662C79.5692 1.88873 86.1643 0 94.7101 0C102.451 0 108.427 1.57911 112.638 4.73732C116.849 7.89553 118.954 12.1374 118.954 17.4631C118.954 21.4882 117.839 24.5536 115.61 26.659C113.381 28.7645 110.099 30.1578 105.764 30.839V33.347C110.408 34.152 113.907 35.6692 116.26 37.8985C118.675 40.0659 119.883 43.5647 119.883 48.395C119.883 54.3398 117.654 58.9842 113.195 62.3282C108.736 65.6722 102.575 67.3442 94.7101 67.3442C76.2562 67.3442 67.0293 58.7056 67.0293 41.4283Z" fill="#175F55" fill-opacity="0.18"/>
</svg>
