<svg width="120" height="68" viewBox="0 0 120 68" fill="none" xmlns="http://www.w3.org/2000/svg">
<path d="M28.7026 0C37.7437 0 44.7723 3.12725 49.7883 9.38175C54.8043 15.5743 57.3123 23.6556 57.3123 33.6257C57.3123 43.6576 54.8043 51.8009 49.7883 58.0554C44.7723 64.2479 37.7437 67.3442 28.7026 67.3442C19.5995 67.3442 12.54 64.2479 7.52398 58.0554C2.50799 51.8009 0 43.6576 0 33.6257C0 23.6556 2.50799 15.5743 7.52398 9.38175C12.54 3.12725 19.5995 0 28.7026 0ZM28.7026 7.80264C22.3861 7.80264 17.525 10.1558 14.1191 14.8622C10.7751 19.5066 9.10308 25.7611 9.10308 33.6257C9.10308 39.1371 9.93908 43.9053 11.6111 47.9305L41.3354 12.6328C37.9914 9.41271 33.7805 7.80264 28.7026 7.80264ZM28.7026 59.5416C35.019 59.5416 39.8492 57.2194 43.1932 52.5749C46.5372 47.8686 48.2092 41.5522 48.2092 33.6257C48.2092 27.9904 47.3732 23.1912 45.7012 19.2279L15.9768 54.7114C19.3208 57.9315 23.5627 59.5416 28.7026 59.5416Z" fill="#175F55" fill-opacity="0.18"/>
<path d="M119.511 44.8652V52.6678H111.337V66.4153H102.234V52.6678H67.6795V36.4123C75.4821 33.5018 81.9534 28.9812 87.0932 22.8506C92.295 16.7199 95.3293 9.41271 96.1963 0.928885H105.299C103.008 21.1786 91.2732 35.5144 70.0946 43.9363V46.3514L76.3181 44.8652H102.234V22.9435H111.337V44.8652H119.511Z" fill="#175F55" fill-opacity="0.18"/>
</svg>
