<svg width="23" height="23" viewBox="0 0 23 23" fill="none" xmlns="http://www.w3.org/2000/svg">
<path d="M17.4468 2.87158H4.5871C4.09987 2.87158 3.6326 3.06513 3.28808 3.40966C2.94355 3.75418 2.75 4.22146 2.75 4.70869V17.5684C2.75 18.0556 2.94355 18.5229 3.28808 18.8674C3.6326 19.212 4.09987 19.4055 4.5871 19.4055H17.4468C17.9341 19.4055 18.4013 19.212 18.7459 18.8674C19.0904 18.5229 19.2839 18.0556 19.2839 17.5684V4.70869C19.2839 4.22146 19.0904 3.75418 18.7459 3.40966C18.4013 3.06513 17.9341 2.87158 17.4468 2.87158Z" stroke="#175F55" stroke-width="1.37783" stroke-linecap="round" stroke-linejoin="round"/>
<path d="M6.42188 6.54541H15.6074" stroke="#175F55" stroke-width="1.37783" stroke-linecap="round" stroke-linejoin="round"/>
<path d="M6.42188 11.1377H15.6074" stroke="#175F55" stroke-width="1.37783" stroke-linecap="round" stroke-linejoin="round"/>
<path d="M6.42188 15.7319H11.9332" stroke="#175F55" stroke-width="1.37783" stroke-linecap="round" stroke-linejoin="round"/>
</svg>
